<?xml version="1.0" encoding="UTF-8"?>
<svg version="1.1" xmlns="http://www.w3.org/2000/svg" width="72" height="71">
<path d="M0 0 C2.5 2.1875 2.5 2.1875 4 5 C3.83083157 8.55253709 3.00047767 9.9992835 1 13 C-2.16912098 13.89562115 -4.17702854 14.28915213 -7.3125 13.1875 C-9 12 -9 12 -10 10 C-10.44948064 3.81964117 -10.44948064 3.81964117 -8.9375 1.0625 C-5.79665674 -0.65989792 -3.50181214 -0.49148241 0 0 Z " fill="#2d4a95" transform="translate(47,4)"/>
<path d="M0 0 C3.48912755 0.80518328 4.14863937 1.01542937 6.25 3.75 C7.25944574 6.17266977 8.13194859 8.51276877 8.9375 11 C9.16244141 11.64324219 9.38738281 12.28648438 9.61914062 12.94921875 C11.07138439 17.33684886 11.6051752 21.14399781 11.25 25.75 C9.409863 28.93485251 7.95522983 30.38878472 4.6875 32.0625 C-0.13967271 33.02793454 -4.84485853 32.90710418 -9.75 32.75 C-9.87117188 33.65363281 -9.99234375 34.55726562 -10.1171875 35.48828125 C-10.28476562 36.66777344 -10.45234375 37.84726562 -10.625 39.0625 C-10.86863281 40.82013672 -10.86863281 40.82013672 -11.1171875 42.61328125 C-11.75 45.75 -11.75 45.75 -13.75 48.75 C-15.4 48.42 -17.05 48.09 -18.75 47.75 C-19.02585215 40.71577015 -18.55738527 33.57360426 -16.75 26.75 C-13.4688698 24.56257986 -11.41915644 24.20557194 -7.5625 23.625 C-6.47582031 23.45742188 -5.38914062 23.28984375 -4.26953125 23.1171875 C-3.43808594 22.99601562 -2.60664062 22.87484375 -1.75 22.75 C-2.74 20.11 -3.73 17.47 -4.75 14.75 C-5.74 15.41 -6.73 16.07 -7.75 16.75 C-10.35245498 16.89221065 -12.84117684 16.93802932 -15.4375 16.875 C-16.13939453 16.86597656 -16.84128906 16.85695313 -17.56445312 16.84765625 C-19.29311525 16.82413704 -21.02160145 16.78826713 -22.75 16.75 C-22.792721 15.08388095 -22.79063832 13.41617115 -22.75 11.75 C-22.42 11.42 -22.09 11.09 -21.75 10.75 C-20.04166667 10.75 -18.33333333 10.75 -16.625 10.75 C-12.9568116 10.48934062 -11.32642434 10.33415417 -8.7109375 7.68359375 C-7.58550378 6.04169387 -6.47308006 4.39078692 -5.375 2.73046875 C-3.75 0.75 -3.75 0.75 0 0 Z " fill="#2d4a95" transform="translate(48.75,18.25)"/>
<path d="M0 0 C3 1 3 1 4.6875 4.375 C6 8 6 8 6 11 C4.125 10.875 4.125 10.875 2 10 C0.40155515 6.40349908 0 3.96602757 0 0 Z " fill="#2d4a95" transform="translate(16,23)"/>
<path d="M0 0 C0.99 0 1.98 0 3 0 C2.88509088 2.68826864 2.75836801 5.37513469 2.625 8.0625 C2.57859375 9.19075195 2.57859375 9.19075195 2.53125 10.34179688 C2.21481247 16.43321927 1.45492175 21.81761738 -2 27 C-1.80785241 28.94950874 -1.80785241 28.94950874 -1.125 30.9375 C-0.21019294 33.94246749 0 35.71686222 0 39 C-0.99 39 -1.98 39 -3 39 C-3.50367757 37.54293274 -4.00282556 36.08429904 -4.5 34.625 C-4.7784375 33.81289063 -5.056875 33.00078125 -5.34375 32.1640625 C-6 30 -6 30 -6 28 C-10.95 28.495 -10.95 28.495 -16 29 C-16.99 32.3 -17.98 35.6 -19 39 C-20.32 38.67 -21.64 38.34 -23 38 C-22.855625 37.32453125 -22.71125 36.6490625 -22.5625 35.953125 C-22.376875 35.06109375 -22.19125 34.1690625 -22 33.25 C-21.7215625 31.92742188 -21.7215625 31.92742188 -21.4375 30.578125 C-20.88846325 27.77856035 -20.88846325 27.77856035 -21 24 C-20.02417969 23.96261719 -19.04835937 23.92523438 -18.04296875 23.88671875 C-16.13451172 23.78810547 -16.13451172 23.78810547 -14.1875 23.6875 C-12.29064453 23.60048828 -12.29064453 23.60048828 -10.35546875 23.51171875 C-6.77732037 22.96604071 -6.1199356 22.74373981 -4 20 C-3.33768098 17.90825349 -3.33768098 17.90825349 -3.0859375 15.5859375 C-2.96476562 14.74289063 -2.84359375 13.89984375 -2.71875 13.03125 C-2.6053125 12.1546875 -2.491875 11.278125 -2.375 10.375 C-2.13621034 8.63234353 -1.89419704 6.8901247 -1.6484375 5.1484375 C-1.54708496 4.37677246 -1.44573242 3.60510742 -1.34130859 2.81005859 C-1 1 -1 1 0 0 Z " fill="#2d4a95" transform="translate(64,28)"/>
<path d="M0 0 C10.56 0 21.12 0 32 0 C32.495 2.475 32.495 2.475 33 5 C24.42 5 15.84 5 7 5 C7 13.25 7 21.5 7 30 C5.68 30.33 4.36 30.66 3 31 C2 30 2 30 1.88647461 27.59155273 C1.89171143 26.54942627 1.89694824 25.5072998 1.90234375 24.43359375 C1.90717773 22.7465332 1.90717773 22.7465332 1.91210938 21.02539062 C1.92048828 19.84138672 1.92886719 18.65738281 1.9375 17.4375 C1.94201172 16.24962891 1.94652344 15.06175781 1.95117188 13.83789062 C1.96300325 10.89187774 1.97948713 7.94596319 2 5 C1.01 4.67 0.02 4.34 -1 4 C-0.67 2.68 -0.34 1.36 0 0 Z " fill="#2d4a95" transform="translate(6,36)"/>
</svg>
