<?xml version="1.0" encoding="UTF-8"?>
<svg version="1.1" xmlns="http://www.w3.org/2000/svg" width="77" height="66">
<path d="M0 0 C2.39561646 1.07498997 4.71753263 2.18362768 7.05078125 3.37890625 C7.70958786 3.71043198 8.36839447 4.0419577 9.04716492 4.38352966 C11.13850906 5.43755842 13.22551046 6.4998795 15.3125 7.5625 C16.73474694 8.28115158 18.1572702 8.99925659 19.58007812 9.71679688 C23.0566167 11.47155215 26.5292863 13.23375364 30 15 C30 15.99 30 16.98 30 18 C25.33908981 20.46814383 20.67389085 22.92760727 16 25.37109375 C13.08609168 26.89541834 10.18749138 28.43875372 7.3125 30.03515625 C6.301875 30.58042969 5.29125 31.12570313 4.25 31.6875 C2.95835938 32.40486328 2.95835938 32.40486328 1.640625 33.13671875 C-3.78929176 34.91188384 -8.12472787 33.07445892 -13.05859375 30.71484375 C-14.85679853 29.79927429 -16.64970303 28.87322959 -18.4375 27.9375 C-19.35982422 27.46505859 -20.28214844 26.99261719 -21.23242188 26.50585938 C-23.49311545 25.34622899 -25.74857555 24.17749658 -28 23 C-28.22649259 31.3928088 -27.86538344 39.28494855 -26.33984375 47.55078125 C-26.22769531 48.35902344 -26.11554687 49.16726562 -26 50 C-27 51 -27 51 -28.84765625 51.09765625 C-30.8984375 51.06510417 -32.94921875 51.03255208 -35 51 C-36.20509664 47.38471008 -35.73976301 45.37252791 -35.125 41.625 C-34.38760109 36.69364479 -33.65919755 31.77052101 -33.125 26.8125 C-33.00382812 25.76707031 -32.88265625 24.72164062 -32.7578125 23.64453125 C-32.70086494 20.85283867 -32.70086494 20.85283867 -34.9921875 19.32421875 C-35.65476562 18.88722656 -36.31734375 18.45023438 -37 18 C-37 17.01 -37 16.02 -37 15 C-32.54330075 12.68504415 -28.07766108 10.38874924 -23.6027832 8.10913086 C-22.08228849 7.33129756 -20.56434615 6.54845354 -19.04907227 5.76049805 C-16.86868816 4.62778457 -14.67971614 3.5134945 -12.48828125 2.40234375 C-11.81412674 2.047202 -11.13997223 1.69206024 -10.44538879 1.32615662 C-6.51194493 -0.64218934 -4.17390195 -1.55944362 0 0 Z " fill="#2d4a95" transform="translate(43,6)"/>
<path d="M0 0 C5.39894274 1.64455165 10.00082733 4.09796215 14.90234375 6.85546875 C20.09066712 8.77246591 23.70607802 7.5789329 28.640625 5.37109375 C29.84915138 4.73674819 31.05231263 4.09208022 32.25 3.4375 C38.62720157 0 38.62720157 0 42 0 C42.774239 11.75122743 42.774239 11.75122743 40.0625 16.125 C31.78281351 21.19419581 23.62885905 21.98319094 14 21 C3.24465375 18.35332855 3.24465375 18.35332855 0 14 C-0.546875 11.66015625 -0.546875 11.66015625 -0.75 9.0625 C-0.82734375 8.20785156 -0.9046875 7.35320313 -0.984375 6.47265625 C-0.9993259 4.10667647 -0.68960644 2.25166952 0 0 Z " fill="#2d4a95" transform="translate(19,34)"/>
</svg>
