<?xml version="1.0" encoding="UTF-8"?>
<svg version="1.1" xmlns="http://www.w3.org/2000/svg" width="71" height="70">
<path d="M0 0 C2.05859375 0.43359375 2.05859375 0.43359375 4.05859375 3.43359375 C3.39859375 4.09359375 2.73859375 4.75359375 2.05859375 5.43359375 C-1.56640625 5.05859375 -1.56640625 5.05859375 -4.94140625 4.43359375 C-5.27140625 5.42359375 -5.60140625 6.41359375 -5.94140625 7.43359375 C-4.30171875 7.83578125 -4.30171875 7.83578125 -2.62890625 8.24609375 C2.45229454 9.88241265 2.45229454 9.88241265 4.05859375 12.43359375 C4.49609375 14.93359375 4.49609375 14.93359375 4.05859375 17.43359375 C1.65542882 20.22126507 0.18484067 20.42251946 -3.50390625 20.74609375 C-6.94140625 20.43359375 -6.94140625 20.43359375 -9.94140625 18.43359375 C-9.44640625 16.94859375 -9.44640625 16.94859375 -8.94140625 15.43359375 C-6.30140625 15.76359375 -3.66140625 16.09359375 -0.94140625 16.43359375 C-0.94140625 15.44359375 -0.94140625 14.45359375 -0.94140625 13.43359375 C-1.50730469 13.20285156 -2.07320312 12.97210938 -2.65625 12.734375 C-8.63661039 10.07526924 -8.63661039 10.07526924 -10.12890625 6.93359375 C-9.94140625 4.43359375 -9.94140625 4.43359375 -9.06640625 2.12109375 C-6.09593223 -0.23781209 -3.70058417 -0.00607649 0 0 Z " fill="#2d4a95" transform="translate(12.94140625,2.56640625)"/>
<path d="M0 0 C9.48283251 -0.89680027 9.48283251 -0.89680027 12.84375 1.08984375 C15.28052757 3.76038196 16.00374534 6.02668555 16.5 9.5625 C15.87177317 13.88155944 14.80102292 16.59920439 11.3125 19.3125 C7.79452354 20.35838489 4.66592725 20.1802915 1 20 C0 19 0 19 -0.11352539 17.14233398 C-0.10828857 16.35157471 -0.10305176 15.56081543 -0.09765625 14.74609375 C-0.09443359 13.89208984 -0.09121094 13.03808594 -0.08789062 12.15820312 C-0.07951172 11.26037109 -0.07113281 10.36253906 -0.0625 9.4375 C-0.05798828 8.53580078 -0.05347656 7.63410156 -0.04882812 6.70507812 C-0.03700225 4.46998686 -0.0205222 2.23502563 0 0 Z M4 3 C4 7.29 4 11.58 4 16 C5.98 16 7.96 16 10 16 C12.4282022 14.00442887 12.4282022 14.00442887 12.3125 10.0625 C12.23719217 7.46908648 12.15247863 6.25680612 10.8125 4 C8.61536225 2.59743555 8.61536225 2.59743555 4 3 Z " fill="#2d4a95" transform="translate(20,3)"/>
<path d="M0 0 C3.27725968 0.05958654 3.94187595 0.22850076 6.625 2.375 C7.3675 3.365 7.3675 3.365 8.125 4.375 C6.145 5.365 6.145 5.365 4.125 6.375 C4.125 5.715 4.125 5.055 4.125 4.375 C1.485 4.375 -1.155 4.375 -3.875 4.375 C-3.92895478 5.99963842 -3.96777195 7.62478541 -4 9.25 C-4.03480469 10.60738281 -4.03480469 10.60738281 -4.0703125 11.9921875 C-4.11824836 14.56306994 -4.11824836 14.56306994 -1.875 16.375 C1.20847826 16.54181109 1.20847826 16.54181109 4.125 16.375 C4.455 15.055 4.785 13.735 5.125 12.375 C3.805 12.375 2.485 12.375 1.125 12.375 C1.125 11.385 1.125 10.395 1.125 9.375 C3.435 9.375 5.745 9.375 8.125 9.375 C8.59207789 13.39186987 8.44650834 14.94001812 6 18.25 C3.125 20.375 3.125 20.375 0.125 20.9375 C-3.75697317 20.20963003 -5.29658536 19.39542858 -7.875 16.375 C-9.1949716 12.03447989 -9.42429205 8.60436793 -7.5625 4.4375 C-4.26990446 0.41321656 -4.26990446 0.41321656 0 0 Z " fill="#2d4a95" transform="translate(46.875,2.625)"/>
<path d="M0 0 C0.33 0.99 0.66 1.98 1 3 C-0.98 3 -2.96 3 -5 3 C-4.01 3.66 -3.02 4.32 -2 5 C-1.01 5.66 -0.02 6.32 1 7 C1.3125 9.5 1.3125 9.5 1 12 C-1 14 -1 14 -4 14.1875 C-7 14 -7 14 -9 13 C-9 12.01 -9 11.02 -9 10 C-6.69 10.33 -4.38 10.66 -2 11 C-4.12780579 8.65941363 -6.11562221 7.29299694 -9 6 C-8.625 3.0625 -8.625 3.0625 -8 0 C-5.13822943 -1.43088528 -3.06624227 -0.59991697 0 0 Z " fill="#2d4a95" transform="translate(67,9)"/>
<path d="M0 0 C-1.19899698 3.0831351 -2.47700477 6.06279492 -4 9 C-5.98 9 -7.96 9 -10 9 C-8.5124715 4.98367305 -4.56813239 0 0 0 Z " fill="#2d4a95" transform="translate(28,29)"/>
<path d="M0 0 C0.66 0 1.32 0 2 0 C2 2.97 2 5.94 2 9 C-0.31 9 -2.62 9 -5 9 C-3.7580393 5.56072421 -2.44259716 2.74792181 0 0 Z " fill="#2d4a95" transform="translate(32,29)"/>
<path d="M0 0 C5.09659478 2.54829739 5.10871914 3.89354167 7 9 C4.69 9 2.38 9 0 9 C0 6.03 0 3.06 0 0 Z " fill="#2d4a95" transform="translate(37,29)"/>
<path d="M0 0 C4.43970742 1.39533662 6.90515679 3.56128532 10 7 C10.33 7.66 10.66 8.32 11 9 C8.69 9 6.38 9 4 9 C0 2.25 0 2.25 0 0 Z " fill="#2d4a95" transform="translate(43,29)"/>
<path d="M0 0 C2.31 0 4.62 0 7 0 C6.67 2.31 6.34 4.62 6 7 C3.36 7 0.72 7 -2 7 C-1.34 4.69 -0.68 2.38 0 0 Z " fill="#2d4a95" transform="translate(16,41)"/>
<path d="M0 0 C2.64 0 5.28 0 8 0 C8 2.31 8 4.62 8 7 C5.03 7 2.06 7 -1 7 C-0.67 4.69 -0.34 2.38 0 0 Z " fill="#2d4a95" transform="translate(26,41)"/>
<path d="M0 0 C2.64 0 5.28 0 8 0 C8.33 2.31 8.66 4.62 9 7 C6.03 7 3.06 7 0 7 C0 4.69 0 2.38 0 0 Z " fill="#2d4a95" transform="translate(37,41)"/>
<path d="M0 0 C2.31 0 4.62 0 7 0 C8.4606285 2.64738916 9 3.89448334 9 7 C6.36 7 3.72 7 1 7 C0.67 4.69 0.34 2.38 0 0 Z " fill="#2d4a95" transform="translate(48,41)"/>
<path d="M0 0 C2.64 0 5.28 0 8 0 C8.33 2.64 8.66 5.28 9 8 C6.69 8 4.38 8 2 8 C1.34 5.36 0.68 2.72 0 0 Z " fill="#2d4a95" transform="translate(14,51)"/>
<path d="M0 0 C2.97 0 5.94 0 9 0 C9 2.64 9 5.28 9 8 C6.36 8 3.72 8 1 8 C0.67 5.36 0.34 2.72 0 0 Z " fill="#2d4a95" transform="translate(25,51)"/>
<path d="M0 0 C2.97 0 5.94 0 9 0 C8.67 2.64 8.34 5.28 8 8 C5.36 8 2.72 8 0 8 C0 5.36 0 2.72 0 0 Z " fill="#2d4a95" transform="translate(37,51)"/>
<path d="M0 0 C2.64 0 5.28 0 8 0 C7.125 5.75 7.125 5.75 6 8 C3.69 8 1.38 8 -1 8 C-0.67 5.36 -0.34 2.72 0 0 Z " fill="#2d4a95" transform="translate(49,51)"/>
<path d="M0 0 C1.98 0 3.96 0 6 0 C7.32 2.97 8.64 5.94 10 9 C5.57238086 7.60846256 3.0443745 5.47928514 0 2 C0 1.34 0 0.68 0 0 Z " fill="#2d4a95" transform="translate(18,61)"/>
<path d="M0 0 C1.4540625 0.0309375 1.4540625 0.0309375 2.9375 0.0625 C2.9375 3.0325 2.9375 6.0025 2.9375 9.0625 C-1.58596473 6.80076764 -2.12078666 5.52844067 -4.0625 1.0625 C-3.0625 0.0625 -3.0625 0.0625 0 0 Z " fill="#2d4a95" transform="translate(31.0625,60.9375)"/>
<path d="M0 0 C2.31 0 4.62 0 7 0 C5.06382979 6.70212766 5.06382979 6.70212766 2 9 C1.34 9 0.68 9 0 9 C0 6.03 0 3.06 0 0 Z " fill="#2d4a95" transform="translate(37,61)"/>
<path d="M0 0 C1.98 0 3.96 0 6 0 C4.64531705 4.87685861 2.28324091 6.48592381 -2 9 C-2.66 8.67 -3.32 8.34 -4 8 C-2.68 5.36 -1.36 2.72 0 0 Z " fill="#2d4a95" transform="translate(47,61)"/>
</svg>
