<?xml version="1.0" encoding="UTF-8"?>
<svg version="1.1" xmlns="http://www.w3.org/2000/svg" width="71" height="82">
<path d="M0 0 C2.71604883 1.92982417 3.74692606 3.34200775 4.9375 6.4375 C5.01929321 9.79102143 3.98804097 11.34927871 2 14 C-1.12860495 15.56430248 -3.55602925 15.35627284 -7 15 C-9.5 12.9375 -9.5 12.9375 -11 10 C-10.93977486 6.50694211 -10.63658168 4.09633511 -8.875 1.0625 C-5.81547541 -0.6712306 -3.43182475 -0.42145216 0 0 Z " fill="#2d4a95" transform="translate(49,4)"/>
<path d="M0 0 C1.29550781 -0.02578125 2.59101562 -0.0515625 3.92578125 -0.078125 C8.98431237 0.36311759 12.15327458 1.76955739 15.8046875 5.29296875 C16.38476562 6.00066406 16.96484375 6.70835938 17.5625 7.4375 C18.15804687 8.15292969 18.75359375 8.86835938 19.3671875 9.60546875 C19.80289063 10.14816406 20.23859375 10.69085938 20.6875 11.25 C23.39429384 10.27254667 25.47384735 9.43026942 27.6875 7.5625 C29.6875 6.25 29.6875 6.25 32.4375 6.5625 C33.18 6.789375 33.9225 7.01625 34.6875 7.25 C34.38782307 10.61108248 33.93312389 11.99766507 31.54296875 14.453125 C30.66253906 15.12859375 29.78210937 15.8040625 28.875 16.5 C28.00230469 17.18578125 27.12960938 17.8715625 26.23046875 18.578125 C22.33971525 21.13610119 22.33971525 21.13610119 19.6875 21.25 C17.765625 20.03515625 17.765625 20.03515625 15.9375 18.3125 C15.32390625 17.74660156 14.7103125 17.18070313 14.078125 16.59765625 C13.38976563 15.93056641 13.38976563 15.93056641 12.6875 15.25 C8.78062523 21.91000765 8.78062523 21.91000765 7.6875 29.25 C8.96534157 30.73704572 10.30835681 32.16889027 11.6875 33.5625 C15.54357217 37.61441472 15.54357217 37.61441472 16.17578125 40.40625 C15.61728198 47.25717443 12.55860586 56.37889414 7.6875 61.25 C5.0625 60.875 5.0625 60.875 2.6875 60.25 C0.9366677 55.5993517 3.03961875 52.34482441 4.875 48.00390625 C5.80122318 44.86454402 5.78950662 43.3173364 4.6875 40.25 C3.10300534 38.39511351 3.10300534 38.39511351 1.125 36.9375 C0.48433594 36.42574219 -0.15632813 35.91398437 -0.81640625 35.38671875 C-1.31011719 35.01160156 -1.80382812 34.63648438 -2.3125 34.25 C-2.56 35.3225 -2.8075 36.395 -3.0625 37.5 C-4.89583333 43 -4.89583333 43 -8.3125 45.25 C-14.90358991 47.13470708 -21.49397331 47.57992871 -28.3125 47.25 C-29.3125 46.25 -29.3125 46.25 -29.375 43.6875 C-29.354375 42.883125 -29.33375 42.07875 -29.3125 41.25 C-25.33758904 39.38940338 -22.22818516 38.22415113 -17.86328125 37.78515625 C-14.85557214 37.13780674 -13.66491817 36.71642417 -11.7902832 34.23535156 C-10.4959038 31.55282342 -9.43885297 28.86742622 -8.4375 26.0625 C-8.07398437 25.12857422 -7.71046875 24.19464844 -7.3359375 23.23242188 C-6.62990896 21.41490999 -5.93698513 19.59223998 -5.25878906 17.76416016 C-4.04644018 14.54311557 -2.69793342 11.39990052 -1.3125 8.25 C-5.89596654 9.18540134 -8.51787019 10.19824627 -11.9375 13.4375 C-13.66796875 15.05078125 -13.66796875 15.05078125 -15.3125 16.25 C-18.25 16.125 -18.25 16.125 -20.3125 15.25 C-19.83999778 10.65532322 -18.2223209 8.66788553 -14.9375 5.5 C-13.75027344 4.33210938 -13.75027344 4.33210938 -12.5390625 3.140625 C-8.61393356 -0.1922915 -4.98370876 0.05915381 0 0 Z " fill="#2d4a95" transform="translate(31.3125,18.75)"/>
</svg>
