<?xml version="1.0" encoding="UTF-8"?>
<svg version="1.1" xmlns="http://www.w3.org/2000/svg" width="120" height="133">
<path d="M0 0 C0.75555679 0.34660675 1.51111359 0.6932135 2.28956604 1.05032349 C4.69666865 2.15618502 7.10024183 3.26950085 9.50390625 4.3828125 C11.11632211 5.12416429 12.72895027 5.86505453 14.34179688 6.60546875 C26.92263787 12.39355956 26.92263787 12.39355956 33.06640625 15.5078125 C32.75390625 17.4453125 32.75390625 17.4453125 32.06640625 19.5078125 C30.58140625 20.0028125 30.58140625 20.0028125 29.06640625 20.5078125 C29.07687988 21.19407715 29.08735352 21.8803418 29.09814453 22.58740234 C29.13962499 25.68583539 29.16570694 28.78421011 29.19140625 31.8828125 C29.20816406 32.96304688 29.22492188 34.04328125 29.2421875 35.15625 C29.24863281 36.1875 29.25507812 37.21875 29.26171875 38.28125 C29.27219238 39.23435059 29.28266602 40.18745117 29.29345703 41.16943359 C29.06640625 43.5078125 29.06640625 43.5078125 27.06640625 45.5078125 C25.08640625 45.0128125 25.08640625 45.0128125 23.06640625 44.5078125 C23.06640625 37.5778125 23.06640625 30.6478125 23.06640625 23.5078125 C21.08640625 24.4978125 19.10640625 25.4878125 17.06640625 26.5078125 C17.18096753 28.90455517 17.30769344 31.29962468 17.44140625 33.6953125 C17.47234375 34.36884766 17.50328125 35.04238281 17.53515625 35.73632812 C17.77032425 39.75378147 18.53656401 42.82114349 20.06640625 46.5078125 C20.28713535 50.87089102 19.8372141 54.44462926 17.25390625 58.0078125 C15.06640625 59.5078125 15.06640625 59.5078125 13.12109375 59.765625 C9.99440729 60.89503646 9.43957344 62.96553678 8.00390625 65.8828125 C5.31540776 71.28833466 5.31540776 71.28833466 3.3203125 73.046875 C1.78423931 74.5105852 1.78423931 74.5105852 2.1015625 77.06640625 C2.83674662 79.62858093 2.83674662 79.62858093 5 80.73046875 C6.23943359 81.14619141 6.23943359 81.14619141 7.50390625 81.5703125 C8.40753906 81.89515625 9.31117187 82.22 10.2421875 82.5546875 C11.64017578 83.02648437 11.64017578 83.02648437 13.06640625 83.5078125 C21.42999479 86.36673032 27.44454568 89.95127824 33.00390625 96.9453125 C34.89190718 101.49872652 35.8141765 105.57240716 34.00390625 110.2578125 C29.71708122 115.23606092 24.82608366 117.22901336 18.47265625 118.234375 C17.73921997 118.35600006 17.00578369 118.47762512 16.25012207 118.60293579 C7.92395593 119.85875808 -0.39413288 119.95984423 -8.79931641 119.89892578 C-11.43184177 119.88282322 -14.06283272 119.89888926 -16.6953125 119.91796875 C-24.9848945 119.92977341 -33.09038589 119.60041382 -41.27734375 118.234375 C-41.95051636 118.12652679 -42.62368896 118.01867859 -43.31726074 117.90756226 C-48.56087744 116.91543054 -53.96024844 114.99594354 -57.37109375 110.6953125 C-58.51886556 106.23175545 -58.39612801 102.66414816 -56.68359375 98.3828125 C-53.27631547 92.78514105 -50.33115222 89.81546356 -44.37109375 86.9453125 C-43.75919189 86.6457666 -43.14729004 86.3462207 -42.5168457 86.03759766 C-37.79485612 83.77501597 -32.98732666 82.05295729 -27.9453125 80.625 C-25.69858716 79.65400661 -25.69858716 79.65400661 -24.96875 77.1015625 C-24.69958835 74.5257301 -24.69958835 74.5257301 -26.04296875 72.734375 C-26.584375 72.20585938 -27.12578125 71.67734375 -27.68359375 71.1328125 C-29.98617409 68.71932806 -31.35694843 66.85303445 -32.43359375 63.6953125 C-33.61664324 60.23734349 -33.61664324 60.23734349 -36.93359375 59.3203125 C-37.92359375 59.0521875 -38.91359375 58.7840625 -39.93359375 58.5078125 C-42.14929119 56.25587702 -42.88158054 54.94001749 -43.26171875 51.78125 C-43.2359375 50.82476562 -43.21015625 49.86828125 -43.18359375 48.8828125 C-43.168125 47.92117187 -43.15265625 46.95953125 -43.13671875 45.96875 C-42.93359375 43.5078125 -42.93359375 43.5078125 -41.93359375 41.5078125 C-41.72892741 39.53221382 -41.56810316 37.55192439 -41.43359375 35.5703125 C-41.20952915 32.27736312 -40.97971681 29.64618168 -39.93359375 26.5078125 C-40.71734375 26.2809375 -41.50109375 26.0540625 -42.30859375 25.8203125 C-47.016532 24.11571417 -51.69567455 22.19741471 -55.93359375 19.5078125 C-56.26359375 18.5178125 -56.59359375 17.5278125 -56.93359375 16.5078125 C-51.61794787 13.02118143 -46.25150203 10.0824911 -40.453125 7.484375 C-39.67724533 7.13394135 -38.90136566 6.78350769 -38.10197449 6.42245483 C-36.47736801 5.69170658 -34.85131462 4.96416716 -33.22387695 4.23974609 C-30.73579776 3.12821284 -28.25771065 1.99617253 -25.77929688 0.86328125 C-24.19197518 0.15237416 -22.60410304 -0.55730545 -21.015625 -1.265625 C-20.27907181 -1.60508148 -19.54251862 -1.94453796 -18.78364563 -2.29428101 C-11.20635451 -5.6137578 -7.13609604 -3.31991421 0 0 Z " fill="#2d4a95" transform="translate(71.93359375,10.4921875)"/>
</svg>
