<?xml version="1.0" encoding="UTF-8"?>
<svg version="1.1" xmlns="http://www.w3.org/2000/svg" width="172" height="145">
<path d="M0 0 C3.38199447 4.32928434 3.08079889 7.79918604 3.03242493 13.1521759 C3.04290863 14.16727737 3.05339233 15.18237885 3.06419373 16.22824097 C3.09295573 19.57778953 3.08665051 22.92630521 3.08003235 26.2759552 C3.09314661 28.60052792 3.10844998 30.92508923 3.12585449 33.24963379 C3.16574868 39.36363216 3.17589786 45.47733274 3.17988586 51.59144592 C3.18920886 57.83207763 3.22661726 64.07253375 3.26167297 70.31306458 C3.32629405 82.5545928 3.35949715 94.79599009 3.3730011 107.03767395 C5.26479313 107.71915625 5.26479313 107.71915625 7.3730011 108.03767395 C9.52900744 106.28597908 9.52900744 106.28597908 9.62074757 104.19695568 C9.61978423 103.44573594 9.6188209 102.6945162 9.61782837 101.92053223 C9.62176605 101.05835083 9.62570374 100.19616943 9.62976074 99.30786133 C9.6240657 98.35978104 9.61837067 97.41170074 9.61250305 96.43489075 C9.61451721 95.43801239 9.61653137 94.44113403 9.61860657 93.41404724 C9.62215877 91.24398768 9.62137678 89.07391779 9.61683083 86.90386009 C9.61125541 83.47030011 9.62036751 80.03708021 9.6340332 76.60354614 C9.67123529 66.83946775 9.68969602 57.07550278 9.67842102 47.31135559 C9.67257361 41.34368922 9.69081604 35.37649912 9.72430992 29.40892982 C9.73227339 27.13275801 9.73097421 24.85653442 9.72028542 22.58037376 C9.70597776 19.39593555 9.72221106 16.21299597 9.74531555 13.02864075 C9.72766396 11.61562935 9.72766396 11.61562935 9.70965576 10.17407227 C9.77420907 5.64055258 9.87181938 3.67814036 12.74401855 0.00772095 C26.53227931 -10.32461152 45.79394811 -10.39267514 62.1855011 -8.21232605 C70.14148059 -6.80891103 78.50045293 -4.83487422 84.3730011 1.03767395 C85.51848586 3.32864348 85.5033753 4.61465853 85.51344299 7.1615448 C85.51915314 8.02517136 85.52486328 8.88879791 85.53074646 9.77859497 C85.53242325 11.20307198 85.53242325 11.20307198 85.53413391 12.65632629 C85.53909882 13.65481094 85.54406372 14.65329559 85.54917908 15.68203735 C85.56382329 18.99590231 85.57060628 22.30971941 85.5761261 25.62361145 C85.58187545 27.92045595 85.58763321 30.21730044 85.59339905 32.5141449 C85.60391531 37.3344902 85.60975396 42.15481879 85.61323547 46.97517395 C85.61872316 53.15827082 85.64275458 59.3411478 85.67120743 65.52417564 C85.6898108 70.26988881 85.69503817 75.01554876 85.69657135 79.76129532 C85.69960333 82.04111051 85.70765012 84.32092466 85.72075653 86.60070419 C85.7377696 89.78738494 85.73594829 92.97352509 85.72944641 96.16023254 C85.74326859 97.57863686 85.74326859 97.57863686 85.75737 99.0256958 C85.71622694 105.44754596 85.71622694 105.44754596 83.85072327 108.65501404 C83.36307495 109.11129181 82.87542664 109.56756958 82.3730011 110.03767395 C80.99771057 109.76831981 79.62279751 109.49703884 78.2480011 109.22517395 C77.32889954 109.04599426 76.40979797 108.86681458 75.46284485 108.6822052 C73.36213685 108.24400442 71.27050718 107.76035953 69.18940735 107.2368927 C48.87984287 102.28276772 31.29147748 105.14710298 13.3730011 116.03767395 C12.3830011 116.69767395 11.3930011 117.35767395 10.3730011 118.03767395 C3.58926403 119.29392156 0.07902793 116.90482664 -5.55058289 113.18049622 C-17.76003176 105.23315231 -33.5636326 102.98321419 -47.86332703 105.41853333 C-51.30070445 106.1711316 -54.65849074 107.09209274 -58.0410614 108.0650177 C-61.62204281 109.03632965 -64.91862788 109.82666495 -68.6269989 110.03767395 C-71.4357445 107.90094429 -71.62346144 107.05652007 -72.3066864 103.4165802 C-72.90149773 95.95752654 -72.77809866 88.45257107 -72.7519989 80.97517395 C-72.74978333 80.1394989 -72.74756775 79.30382385 -72.74528503 78.44282532 C-72.72794188 72.73959603 -72.6920026 67.03660602 -72.64982605 61.33351135 C-72.62539459 57.80603961 -72.60708019 54.27856213 -72.58891296 50.75105286 C-72.55301728 44.36338721 -72.49264074 37.97629308 -72.41746521 31.588974 C-72.39051172 29.05703328 -72.37019539 26.52501312 -72.35655212 23.9929657 C-72.33536673 20.41882554 -72.28895528 16.84584686 -72.2363739 13.27204895 C-72.23513519 12.19461929 -72.23389648 11.11718964 -72.23262024 10.0071106 C-72.08717601 2.67808161 -72.08717601 2.67808161 -69.74882507 -0.57609558 C-51.23655327 -12.67052422 -18.08378963 -13.50830084 0 0 Z " fill="#2d4a95" transform="translate(80.62699890136719,20.962326049804688)"/>
</svg>
