<?xml version="1.0" encoding="UTF-8"?>
<svg version="1.1" xmlns="http://www.w3.org/2000/svg" width="102" height="83">
<path d="M0 0 C0.88075195 0.39767578 1.76150391 0.79535156 2.66894531 1.20507812 C3.54647461 1.64271484 4.42400391 2.08035156 5.328125 2.53125 C6.29234375 3.01207031 7.2565625 3.49289063 8.25 3.98828125 C9.24 4.48714844 10.23 4.98601563 11.25 5.5 C12.75820312 6.24830078 12.75820312 6.24830078 14.296875 7.01171875 C15.73546875 7.73294922 15.73546875 7.73294922 17.203125 8.46875 C18.07614258 8.90638672 18.94916016 9.34402344 19.84863281 9.79492188 C22 11 22 11 24 13 C23.625 15.625 23.625 15.625 23 18 C15.71578452 18.02312916 8.4315769 18.04091801 1.14733219 18.05181217 C-2.23471813 18.05703975 -5.6167434 18.06413511 -8.9987793 18.07543945 C-12.88329777 18.08834267 -16.76780597 18.09322924 -20.65234375 18.09765625 C-21.87211411 18.10281754 -23.09188446 18.10797882 -24.34861755 18.11329651 C-26.03024742 18.11340981 -26.03024742 18.11340981 -27.74584961 18.11352539 C-28.73846298 18.115746 -29.73107635 18.11796661 -30.75376892 18.12025452 C-33 18 -33 18 -34 17 C-34.04063832 15.33382885 -34.042721 13.66611905 -34 12 C-30.13524024 9.94372518 -26.25782564 7.9144366 -22.36669922 5.90869141 C-21.04587868 5.22318587 -19.72874162 4.53053285 -18.41552734 3.83056641 C-16.52331661 2.82358371 -14.61919707 1.84334085 -12.7109375 0.8671875 C-11.56931152 0.27019043 -10.42768555 -0.32680664 -9.25146484 -0.94189453 C-5.24900422 -2.24439223 -3.77222181 -1.73154274 0 0 Z " fill="#2d4a95" transform="translate(41,8)"/>
<path d="M0 0 C3.4375 0.8125 3.4375 0.8125 5.4375 3.8125 C5.25 7.375 5.25 7.375 4.4375 10.8125 C1.4375 12.8125 1.4375 12.8125 -2.125 12.625 C-5.5625 11.8125 -5.5625 11.8125 -7.5625 8.8125 C-7.375 5.25 -7.375 5.25 -6.5625 1.8125 C-3.5625 -0.1875 -3.5625 -0.1875 0 0 Z " fill="#2d4a95" transform="translate(82.5625,21.1875)"/>
<path d="M0 0 C2.97 0 5.94 0 9 0 C9 7.92 9 15.84 9 24 C6.03 24 3.06 24 0 24 C0 16.08 0 8.16 0 0 Z " fill="#2d4a95" transform="translate(14,29)"/>
<path d="M0 0 C2.97 0 5.94 0 9 0 C10.65394117 1.65394117 10.12999683 3.60315413 10.1328125 5.875 C10.13474609 7.35226563 10.13474609 7.35226563 10.13671875 8.859375 C10.13285156 9.89578125 10.12898438 10.9321875 10.125 12 C10.12886719 13.03640625 10.13273437 14.0728125 10.13671875 15.140625 C10.13542969 16.12546875 10.13414063 17.1103125 10.1328125 18.125 C10.13168457 19.03507812 10.13055664 19.94515625 10.12939453 20.8828125 C10 23 10 23 9 24 C6.03 24 3.06 24 0 24 C0 16.08 0 8.16 0 0 Z " fill="#2d4a95" transform="translate(31,29)"/>
<path d="M0 0 C0.8146875 0.00257812 1.629375 0.00515625 2.46875 0.0078125 C3.2834375 0.00523438 4.098125 0.00265625 4.9375 0 C6.96875 0.1328125 6.96875 0.1328125 7.96875 1.1328125 C8.27807385 4.04929449 8.29429112 5.62508782 6.69140625 8.125 C6.14355469 8.74632812 5.59570312 9.36765625 5.03125 10.0078125 C1.96638078 13.80103887 1.1702159 16.29763083 0.96875 21.1328125 C3.27875 21.4628125 5.58875 21.7928125 7.96875 22.1328125 C7.63875 22.7928125 7.30875 23.4528125 6.96875 24.1328125 C5.48968108 24.15970466 4.01047517 24.17915871 2.53125 24.1953125 C1.29568359 24.21271484 1.29568359 24.21271484 0.03515625 24.23046875 C-2.03125 24.1328125 -2.03125 24.1328125 -3.03125 23.1328125 C-3.1304157 21.51023706 -3.16204777 19.88341419 -3.1640625 18.2578125 C-3.16535156 17.27296875 -3.16664062 16.288125 -3.16796875 15.2734375 C-3.16410156 14.23703125 -3.16023438 13.200625 -3.15625 12.1328125 C-3.16205078 10.57820313 -3.16205078 10.57820313 -3.16796875 8.9921875 C-3.16667969 8.00734375 -3.16539063 7.0225 -3.1640625 6.0078125 C-3.16293457 5.09773438 -3.16180664 4.18765625 -3.16064453 3.25 C-2.98900098 0.44152288 -2.80697969 0.18353329 0 0 Z " fill="#2d4a95" transform="translate(51.03125,28.8671875)"/>
<path d="M0 0 C1.01964844 -0.01675781 2.03929688 -0.03351562 3.08984375 -0.05078125 C6.49850082 0.36578262 8.3140956 1.2843671 11.0625 3.3125 C15.0625 8.6097973 15.0625 8.6097973 15.0625 11.3125 C16.114375 10.9825 17.16625 10.6525 18.25 10.3125 C21.45123357 9.47283218 23.8036008 9.11499096 27.0625 9.3125 C27.5575 11.2925 27.5575 11.2925 28.0625 13.3125 C23.20425893 16.02554371 18.76309003 18.4200583 13.0625 18.3125 C10.125 15.875 10.125 15.875 8.0625 13.3125 C7.7325 16.6125 7.4025 19.9125 7.0625 23.3125 C8.196875 24.09625 9.33125 24.88 10.5 25.6875 C13.9375 28.0625 13.9375 28.0625 15.0625 30.3125 C14.99879787 33.1617224 14.87411317 35.97131442 14.6875 38.8125 C14.64367187 39.59753906 14.59984375 40.38257813 14.5546875 41.19140625 C14.19280516 47.05188968 14.19280516 47.05188968 13.0625 49.3125 C8.1875 48.4375 8.1875 48.4375 7.0625 47.3125 C7.22774521 45.24988563 7.39471079 43.18740898 7.5625 41.125 C7.72117743 36.11926205 7.72117743 36.11926205 5.0625 32.1171875 C2.78070258 30.64114979 0.55330409 29.39481368 -1.9375 28.3125 C-2.2778125 29.67375 -2.2778125 29.67375 -2.625 31.0625 C-4.21129005 34.99045632 -5.2828725 36.18063396 -8.9375 38.3125 C-14.20382086 39.91491671 -18.54242721 40.65163414 -23.9375 39.3125 C-24.2675 37.6625 -24.5975 36.0125 -24.9375 34.3125 C-24.10347656 34.27898437 -23.26945312 34.24546875 -22.41015625 34.2109375 C-18.37207784 33.5911179 -15.08432233 32.96464114 -11.9375 30.3125 C-7.67940617 23.64102399 -5.31532243 15.81589239 -2.9375 8.3125 C-4.5875 8.3125 -6.2375 8.3125 -7.9375 8.3125 C-8.205625 8.910625 -8.47375 9.50875 -8.75 10.125 C-9.96243496 12.35843283 -10.88402273 13.81188199 -12.9375 15.3125 C-15.0625 15.125 -15.0625 15.125 -16.9375 14.3125 C-17.2675 13.6525 -17.5975 12.9925 -17.9375 12.3125 C-16.69683437 10.6803622 -15.44458312 9.05702679 -14.1875 7.4375 C-13.49140625 6.53257813 -12.7953125 5.62765625 -12.078125 4.6953125 C-8.34910452 0.54439554 -5.50279146 0.02081762 0 0 Z " fill="#2d4a95" transform="translate(70.9375,33.6875)"/>
<path d="M0 0 C-0.5625 2.875 -0.5625 2.875 -2 6 C-5.25 7.1875 -5.25 7.1875 -9 8 C-12.21475461 9.4837329 -15.05328423 11.03552282 -18 13 C-20.8179641 13.18395711 -23.53467576 13.25606703 -26.3515625 13.23046875 C-27.16619965 13.23001053 -27.98083679 13.22955231 -28.82015991 13.2290802 C-30.53995218 13.22606143 -32.2597418 13.21818632 -33.97949219 13.20581055 C-36.62184245 13.18752185 -39.26384297 13.18530112 -41.90625 13.18554688 C-43.57552388 13.18063283 -45.24479538 13.17480501 -46.9140625 13.16796875 C-47.70881989 13.16685593 -48.50357727 13.1657431 -49.32241821 13.16459656 C-54.8839414 13.1160586 -54.8839414 13.1160586 -56 12 C-56.04063832 10.33382885 -56.042721 8.66611905 -56 7 C-55.01 6.67 -54.02 6.34 -53 6 C-51.77479736 2.99152582 -51.77479736 2.99152582 -51 0 C-44.21915837 -0.16817034 -37.43815817 -0.32807108 -30.65698242 -0.48217773 C-28.34932014 -0.53560261 -26.04170114 -0.59093234 -23.73413086 -0.64819336 C-20.42050512 -0.73009041 -17.10678495 -0.80517364 -13.79296875 -0.87890625 C-12.24128242 -0.91945885 -12.24128242 -0.91945885 -10.6582489 -0.96083069 C-9.21709465 -0.99097511 -9.21709465 -0.99097511 -7.74682617 -1.02172852 C-6.47774666 -1.05170677 -6.47774666 -1.05170677 -5.18302917 -1.08229065 C-3 -1 -3 -1 0 0 Z " fill="#2d4a95" transform="translate(60,56)"/>
</svg>
