<?xml version="1.0" encoding="UTF-8"?>
<svg version="1.1" xmlns="http://www.w3.org/2000/svg" width="82" height="57">
<path d="M0 0 C1.32 0.66 2.64 1.32 4 2 C4.05607422 3.78857422 4.05607422 3.78857422 4.11328125 5.61328125 C4.17894032 7.179719 4.24538768 8.74612384 4.3125 10.3125 C4.34633789 11.49102539 4.34633789 11.49102539 4.38085938 12.69335938 C4.41630859 13.45068359 4.45175781 14.20800781 4.48828125 14.98828125 C4.51446533 15.68477783 4.54064941 16.38127441 4.56762695 17.09887695 C5.11427071 19.50244268 6.21355952 20.36021416 8 22 C8.3984375 23.9375 8.3984375 23.9375 8.375 26 C8.38660156 27.0209375 8.38660156 27.0209375 8.3984375 28.0625 C8 30 8 30 6.50390625 31.24609375 C3.75907128 34.44721297 4.56412123 39.21916588 4.56054688 43.28320312 C4.50390625 45.41015625 4.50390625 45.41015625 4 49 C1.96484375 50.49609375 1.96484375 50.49609375 0 51 C-0.65871094 50.44699219 -1.31742188 49.89398438 -1.99609375 49.32421875 C-5.55069982 46.57390586 -9.25297724 44.19039642 -13.0625 41.8125 C-13.76955078 41.36197266 -14.47660156 40.91144531 -15.20507812 40.44726562 C-15.89150391 40.01736328 -16.57792969 39.58746094 -17.28515625 39.14453125 C-17.90269775 38.75628174 -18.52023926 38.36803223 -19.15649414 37.96801758 C-21.08936454 36.95307504 -22.86876336 36.44119924 -25 36 C-24.7834375 36.88042969 -24.566875 37.76085938 -24.34375 38.66796875 C-24.0653125 39.82941406 -23.786875 40.99085937 -23.5 42.1875 C-23.2215625 43.33605469 -22.943125 44.48460937 -22.65625 45.66796875 C-22.08288507 48.57916094 -21.7843084 51.05041738 -22 54 C-23 55 -23 55 -26.375 55.3125 C-30 55 -30 55 -31.65625 53.39453125 C-33.34921669 50.37770398 -33.69969703 47.80062206 -34.125 44.375 C-34.57318292 40.03977505 -34.57318292 40.03977505 -36 36 C-37.11375 35.566875 -38.2275 35.13375 -39.375 34.6875 C-43.32356809 32.84937347 -44.42404306 31.98624403 -46 28 C-46.52052782 24.94189906 -46.61673486 23.01607659 -44.98046875 20.3203125 C-42.8169226 17.58810014 -41.33721656 16.11240552 -38 15 C-36.88496094 15.03480469 -35.76992188 15.06960938 -34.62109375 15.10546875 C-22.05986989 15.48403868 -14.50899663 10.85793386 -4.72314453 3.31274414 C-3.19345147 2.14737724 -1.60005692 1.06670461 0 0 Z " fill="#2d4a95" transform="translate(50,0)"/>
<path d="M0 0 C0.59425781 0.22042969 1.18851563 0.44085938 1.80078125 0.66796875 C0.84348209 1.79384889 -0.1150977 2.91864025 -1.07421875 4.04296875 C-1.60789062 4.66945313 -2.1415625 5.2959375 -2.69140625 5.94140625 C-3.81353882 7.22633526 -4.9929385 8.4616885 -6.19921875 9.66796875 C-7.18921875 9.66796875 -8.17921875 9.66796875 -9.19921875 9.66796875 C-8.6159748 6.44255946 -7.67707077 4.69220765 -5.38671875 2.35546875 C-4.88527344 1.82308594 -4.38382812 1.29070313 -3.8671875 0.7421875 C-2.19921875 -0.33203125 -2.19921875 -0.33203125 0 0 Z " fill="#2d4a95" transform="translate(72.19921875,8.33203125)"/>
<path d="M0 0 C3.96 0 7.92 0 12 0 C11.67 0.99 11.34 1.98 11 3 C7.37 3 3.74 3 0 3 C0 2.01 0 1.02 0 0 Z " fill="#2d4a95" transform="translate(66,24)"/>
<path d="M0 0 C3.39192363 0.59283621 5.2107757 1.76743189 7.75 4.0625 C8.67039062 4.88427734 8.67039062 4.88427734 9.609375 5.72265625 C10.29773438 6.35494141 10.29773438 6.35494141 11 7 C10.67 7.66 10.34 8.32 10 9 C5.58968355 8.49111733 3.10672401 5.96550928 0 3 C0 2.01 0 1.02 0 0 Z " fill="#2d4a95" transform="translate(63,33)"/>
</svg>
