<?xml version="1.0" encoding="UTF-8"?>
<svg version="1.1" xmlns="http://www.w3.org/2000/svg" width="181" height="142">
<path d="M0 0 C1.49310488 0.79813426 2.9825112 1.60321436 4.46875 2.4140625 C6.13890833 3.31066854 7.80950195 4.20646408 9.48046875 5.1015625 C10.3626709 5.5759375 11.24487305 6.0503125 12.15380859 6.5390625 C15.12887381 8.1243878 18.11835721 9.679099 21.11328125 11.2265625 C22.139375 11.75717285 23.16546875 12.2877832 24.22265625 12.83447266 C26.2228854 13.86747733 28.22414729 14.89848536 30.2265625 15.92724609 C43.45369613 22.78361868 43.45369613 22.78361868 44.96875 26.4765625 C44.96875 29.48383004 44.3683909 31.38711131 42.96875 34.0390625 C40.96875 35.0390625 40.96875 35.0390625 31.96875 36.0390625 C31.96875 51.5490625 31.96875 67.0590625 31.96875 83.0390625 C34.93875 83.3690625 37.90875 83.6990625 40.96875 84.0390625 C42.11689997 86.33536244 42.27644809 88.11604336 42.53125 90.6640625 C42.65693359 91.88996094 42.65693359 91.88996094 42.78515625 93.140625 C42.84574219 93.76710938 42.90632813 94.39359375 42.96875 95.0390625 C44.103125 95.3278125 45.2375 95.6165625 46.40625 95.9140625 C48.1696875 96.4709375 48.1696875 96.4709375 49.96875 97.0390625 C51.5322848 100.16613209 51.36833487 103.61888693 50.96875 107.0390625 C50.30875 108.0290625 49.64875 109.0190625 48.96875 110.0390625 C46.89821529 110.4109993 46.89821529 110.4109993 44.29319763 110.40655518 C43.30743744 110.41212433 42.32167725 110.41769348 41.30604553 110.4234314 C40.22077072 110.41421661 39.13549591 110.40500183 38.01733398 110.39550781 C36.87748047 110.39755219 35.73762695 110.39959656 34.56323242 110.40170288 C30.78027518 110.40472095 26.99774947 110.38620373 23.21484375 110.3671875 C20.59693001 110.36413181 17.97901466 110.36225424 15.36109924 110.36151123 C9.86901232 110.35781666 4.37705023 110.34283886 -1.11499023 110.3203125 C-8.17268471 110.29142408 -15.23027868 110.28108838 -22.28802586 110.2766304 C-27.69501397 110.27308255 -33.10197943 110.26267245 -38.508955 110.25075531 C-41.11221056 110.24503805 -43.71546842 110.2402842 -46.31872749 110.23648834 C-49.94893548 110.2296515 -53.57905007 110.21603177 -57.20922852 110.20019531 C-58.84017708 110.19851852 -58.84017708 110.19851852 -60.5040741 110.19680786 C-61.48701447 110.19109772 -62.46995483 110.18538757 -63.48268127 110.17950439 C-64.34196008 110.17652973 -65.20123888 110.17355507 -66.08655643 110.17049026 C-68.03125 110.0390625 -68.03125 110.0390625 -69.03125 109.0390625 C-69.15612758 107.22978969 -69.20695846 105.41510143 -69.21875 103.6015625 C-69.23292969 102.61285156 -69.24710938 101.62414062 -69.26171875 100.60546875 C-69.03125 98.0390625 -69.03125 98.0390625 -67.03125 96.0390625 C-63.90625 95.9140625 -63.90625 95.9140625 -61.03125 96.0390625 C-61.05445313 95.42417969 -61.07765625 94.80929688 -61.1015625 94.17578125 C-61.11960937 93.36753906 -61.13765625 92.55929688 -61.15625 91.7265625 C-61.17945313 90.92605469 -61.20265625 90.12554687 -61.2265625 89.30078125 C-61.03125 87.0390625 -61.03125 87.0390625 -59.03125 84.0390625 C-54.57625 83.5440625 -54.57625 83.5440625 -50.03125 83.0390625 C-50.36125 67.5290625 -50.69125 52.0190625 -51.03125 36.0390625 C-54.33125 35.7090625 -57.63125 35.3790625 -61.03125 35.0390625 C-64.03125 32.0390625 -64.03125 32.0390625 -64.53125 28.6015625 C-64.03125 25.0390625 -64.03125 25.0390625 -62.08203125 23.14453125 C-58.10533196 20.40004864 -53.96528824 18.08752549 -49.71875 15.7890625 C-48.83445312 15.30671143 -47.95015625 14.82436035 -47.0390625 14.32739258 C-40.31770007 10.68322944 -33.5345577 7.18562021 -26.66015625 3.83984375 C-24.26392387 2.66997454 -21.95702319 1.44226983 -19.62109375 0.14453125 C-18.58082031 -0.42652344 -17.54054687 -0.99757813 -16.46875 -1.5859375 C-15.58058594 -2.09382812 -14.69242188 -2.60171875 -13.77734375 -3.125 C-8.70000934 -4.67058971 -4.51376147 -2.27956966 0 0 Z M-34.03125 36.0390625 C-34.12429018 37.51260598 -34.14871265 38.99056841 -34.14477539 40.46704102 C-34.14469986 41.40794083 -34.14462433 42.34884064 -34.14454651 43.31825256 C-34.13938522 44.34115891 -34.13422394 45.36406525 -34.12890625 46.41796875 C-34.1274913 47.45976791 -34.12607635 48.50156708 -34.12461853 49.57493591 C-34.1190008 52.91717344 -34.1064453 56.25934507 -34.09375 59.6015625 C-34.08873728 61.86132716 -34.08417398 64.12109287 -34.08007812 66.38085938 C-34.06902561 71.93361641 -34.05227024 77.48633475 -34.03125 83.0390625 C-31.18286879 84.4632531 -28.70337092 84.20901758 -25.53125 84.2265625 C-24.3659375 84.24074219 -23.200625 84.25492188 -22 84.26953125 C-18.91218282 84.35349964 -18.91218282 84.35349964 -17.03125 82.0390625 C-16.73275785 79.98572343 -16.73275785 79.98572343 -16.78833008 77.60522461 C-16.78525345 76.68764877 -16.78217682 75.77007294 -16.77900696 74.82469177 C-16.78619247 73.83195755 -16.79337799 72.83922333 -16.80078125 71.81640625 C-16.80123947 70.80058975 -16.80169769 69.78477325 -16.8021698 68.73817444 C-16.80519404 66.58870273 -16.81308544 64.43923325 -16.82543945 62.28979492 C-16.84369376 58.98673808 -16.8459492 55.68396138 -16.84570312 52.38085938 C-16.85061821 50.29687256 -16.85644649 48.21288765 -16.86328125 46.12890625 C-16.86439407 45.1341478 -16.8655069 44.13938934 -16.86665344 43.11448669 C-16.87303329 42.20006302 -16.87941315 41.28563934 -16.88598633 40.34350586 C-16.88979813 39.53457382 -16.89360992 38.72564178 -16.89753723 37.89219666 C-16.82925125 36.02293316 -16.82925125 36.02293316 -18.03125 35.0390625 C-20.54261104 34.93931218 -23.02028415 34.90024067 -25.53125 34.9140625 C-26.23378906 34.91019531 -26.93632813 34.90632813 -27.66015625 34.90234375 C-31.13553808 34.59515319 -31.13553808 34.59515319 -34.03125 36.0390625 Z M-1.03125 35.0390625 C-1.0565189 41.85668144 -1.07408244 48.67428839 -1.08618164 55.49194336 C-1.09122333 57.81323701 -1.09805651 60.13452747 -1.10668945 62.45581055 C-1.11876225 65.78435045 -1.12447979 69.11284852 -1.12890625 72.44140625 C-1.13406754 73.48618637 -1.13922882 74.53096649 -1.14454651 75.60740662 C-1.14462204 76.56832718 -1.14469757 77.52924774 -1.14477539 78.51928711 C-1.146996 79.36978134 -1.14921661 80.22027557 -1.15150452 81.09654236 C-1.24605284 83.04494795 -1.24605284 83.04494795 -0.03125 84.0390625 C2.11269519 84.1382382 4.26001732 84.168764 6.40625 84.1640625 C7.58058594 84.16664062 8.75492188 84.16921875 9.96484375 84.171875 C12.8928309 84.24671796 12.8928309 84.24671796 14.96875 83.0390625 C14.99401945 76.3638591 15.01158268 69.68866793 15.02368164 63.01342773 C15.02872325 60.74063659 15.03555637 58.4678487 15.04418945 56.19506836 C15.05626261 52.93602699 15.06197987 49.67702833 15.06640625 46.41796875 C15.07156754 45.39506241 15.07672882 44.37215607 15.08204651 43.31825256 C15.08212204 42.37735275 15.08219757 41.43645294 15.08227539 40.46704102 C15.08560631 39.21794701 15.08560631 39.21794701 15.08900452 37.94361877 C15.17879832 36.02872976 15.17879832 36.02872976 13.96875 35.0390625 C11.43825598 34.96592683 8.93570163 34.94658723 6.40625 34.9765625 C5.69533203 34.98107422 4.98441406 34.98558594 4.25195312 34.99023438 C2.49084987 35.00205386 0.72978964 35.01998987 -1.03125 35.0390625 Z " fill="#2d4a95" transform="translate(82.03125,17.9609375)"/>
<path d="M0 0 C0.12683815 7.02901938 0.21436744 14.0577434 0.2746582 21.08764648 C0.29979315 23.47870919 0.33390633 25.86969514 0.37719727 28.26049805 C0.43789061 31.69859764 0.46622072 35.13568096 0.48828125 38.57421875 C0.51408768 39.64210129 0.5398941 40.70998383 0.56648254 41.81022644 C0.56929192 49.25413687 0.56929192 49.25413687 -2.40551758 53.15161133 C-6.5221348 56.08441541 -8.89967847 56.43223064 -14 56 C-16.75329021 54.20437595 -18.52627461 52.94745078 -20 50 C-20.39320507 46.46115436 -20.22712859 44.45425717 -18.625 41.25 C-14.71144717 37.89552615 -11.06503634 37.73309737 -6 37 C-6 31.06 -6 25.12 -6 19 C-12.51630883 19.76601062 -12.51630883 19.76601062 -18.71875 21.19140625 C-19.50507813 21.41376953 -20.29140625 21.63613281 -21.1015625 21.86523438 C-21.89304688 22.09533203 -22.68453125 22.32542969 -23.5 22.5625 C-24.32242188 22.79646484 -25.14484375 23.03042969 -25.9921875 23.27148438 C-27.99629058 23.84242072 -29.99836591 24.42046705 -32 25 C-32.01458252 25.81678223 -32.02916504 26.63356445 -32.04418945 27.47509766 C-32.11886923 31.1921976 -32.21546612 34.90841919 -32.3125 38.625 C-32.33505859 39.91019531 -32.35761719 41.19539063 -32.38085938 42.51953125 C-32.41630859 43.76347656 -32.45175781 45.00742188 -32.48828125 46.2890625 C-32.51446533 47.43068848 -32.54064941 48.57231445 -32.56762695 49.74853516 C-33.18769432 54.41146977 -34.61008523 57.84173769 -38.25 60.875 C-41.76165971 62.31158806 -44.23307391 62.40359922 -48 62 C-51.20446952 60.64700176 -52.59719544 59.67744403 -54.375 56.6875 C-55.16122884 53.30671597 -55.03812905 51.32201297 -54 48 C-52 45.125 -52 45.125 -49 43 C-46.73828125 42.79248047 -46.73828125 42.79248047 -44.3125 42.8671875 C-43.50425781 42.8863623 -42.69601563 42.90553711 -41.86328125 42.92529297 C-41.24839844 42.94994629 -40.63351563 42.97459961 -40 43 C-40.01047363 42.01080566 -40.02094727 41.02161133 -40.03173828 40.00244141 C-40.06789019 36.33857836 -40.09088282 32.67473114 -40.10986328 29.01074219 C-40.11993188 27.42380117 -40.13358767 25.83687875 -40.15087891 24.25 C-40.17509001 21.97130753 -40.18647422 19.69285994 -40.1953125 17.4140625 C-40.20563507 16.70255035 -40.21595764 15.99103821 -40.22659302 15.25796509 C-40.22699422 13.50368335 -40.12202209 11.75003291 -40 10 C-36.30334946 6.30334946 -30.44729799 5.74557355 -25.47119141 4.43115234 C-23.40043363 3.88174794 -21.33507986 3.31472481 -19.26953125 2.74609375 C-17.93779156 2.38953423 -16.60576807 2.03403271 -15.2734375 1.6796875 C-14.07122559 1.35726074 -12.86901367 1.03483398 -11.63037109 0.70263672 C-7.60300369 -0.07683627 -4.09026395 -0.12111372 0 0 Z " fill="#2d4a95" transform="translate(175,34)"/>
</svg>
