<?xml version="1.0" encoding="UTF-8"?>
<svg version="1.1" xmlns="http://www.w3.org/2000/svg" width="90" height="73">
<path d="M0 0 C3.37013879 0.67402776 4.51677007 1.7087875 6.5 4.5 C7.11195145 8.1717087 6.98706506 9.78813568 4.875 12.875 C1.82214079 14.96379841 0.13031776 15.04068562 -3.5 14.5 C-5.375 13.4375 -5.375 13.4375 -6.5 11.5 C-7.004958 7.5324729 -7.11854451 5.39345318 -4.8125 2.0625 C-2.5 0.5 -2.5 0.5 0 0 Z " fill="#2d4a95" transform="translate(68.5,5.5)"/>
<path d="M0 0 C0.495 1.485 0.495 1.485 1 3 C0.67 3.66 0.34 4.32 0 5 C-4.95 5 -9.9 5 -15 5 C-15 5.66 -15 6.32 -15 7 C-14.04287109 6.98259766 -14.04287109 6.98259766 -13.06640625 6.96484375 C-12.24011719 6.95582031 -11.41382812 6.94679688 -10.5625 6.9375 C-9.73878906 6.92589844 -8.91507813 6.91429687 -8.06640625 6.90234375 C-6 7 -6 7 -5 8 C-4.9010706 10.16480797 -4.870289 12.33293785 -4.875 14.5 C-4.87113281 16.27890625 -4.87113281 16.27890625 -4.8671875 18.09375 C-5 21 -5 21 -6 22 C-8.86726528 22.15514859 -11.693807 22.23182934 -14.5625 22.25 C-15.74295898 22.2809375 -15.74295898 22.2809375 -16.94726562 22.3125 C-22.63300006 22.34999866 -26.78541093 21.26980968 -32 19 C-32 14.38 -32 9.76 -32 5 C-28.59068103 3.86356034 -27.99664544 4.13252236 -24.8125 5.4375 C-24.09707031 5.72496094 -23.38164062 6.01242188 -22.64453125 6.30859375 C-22.10183594 6.53675781 -21.55914062 6.76492187 -21 7 C-20.855625 6.195625 -20.71125 5.39125 -20.5625 4.5625 C-20 2 -20 2 -19 1 C-12.64761552 -0.05873075 -6.42882667 -0.10635926 0 0 Z " fill="#2d4a95" transform="translate(35,9)"/>
<path d="M0 0 C0.66 0.33 1.32 0.66 2 1 C2.36923077 8.38461538 2.36923077 8.38461538 0.5 11.5 C0.005 11.995 -0.49 12.49 -1 13 C-5.875 12.125 -5.875 12.125 -7 11 C-7.04092937 8.66702567 -7.04241723 6.33294775 -7 4 C-1.7265625 0.77734375 -1.7265625 0.77734375 0 0 Z " fill="#2d4a95" transform="translate(39,15)"/>
<path d="M0 0 C2.88242568 3.18108666 4.92809686 6.39592277 6.18359375 10.5390625 C9.48359375 9.5490625 12.78359375 8.5590625 16.18359375 7.5390625 C16.84359375 8.8590625 17.50359375 10.1790625 18.18359375 11.5390625 C13.64689407 14.55585264 9.49386629 17.07873755 4.18359375 18.5390625 C2.18359375 16.5390625 0.18359375 14.5390625 -1.81640625 12.5390625 C-2.47640625 15.8390625 -3.13640625 19.1390625 -3.81640625 22.5390625 C-2.68203125 23.3228125 -1.54765625 24.1065625 -0.37890625 24.9140625 C3.05859375 27.2890625 3.05859375 27.2890625 4.18359375 29.5390625 C4.04630781 36.40335964 3.08309402 42.95412822 1.18359375 49.5390625 C-0.4825253 49.5817835 -2.1502351 49.57970082 -3.81640625 49.5390625 C-4.14640625 49.2090625 -4.47640625 48.8790625 -4.81640625 48.5390625 C-4.7554472 46.81539275 -4.69020949 45.09172513 -4.59912109 43.36938477 C-4.14790074 37.1637678 -4.14790074 37.1637678 -6.078125 31.43359375 C-8.21510055 29.669166 -9.99590099 28.5390625 -12.81640625 28.5390625 C-13.48995124 29.97335251 -14.15500326 31.41163307 -14.81640625 32.8515625 C-17.10776111 36.52583102 -19.03849537 37.84100815 -23.14453125 38.83984375 C-35.57201845 41.1612564 -35.57201845 41.1612564 -38.81640625 39.5390625 C-39.00390625 37.1640625 -39.00390625 37.1640625 -38.81640625 34.5390625 C-35.54372553 32.35727535 -34.84053811 32.49563683 -31.12890625 32.4140625 C-28.26213734 31.90348468 -26.47474576 31.37239676 -24.63525391 29.04394531 C-21.86060411 24.44999286 -19.82417342 19.50424903 -17.81640625 14.5390625 C-17.36007813 13.45625 -16.90375 12.3734375 -16.43359375 11.2578125 C-15.51850543 9.03088428 -14.64257438 6.80015423 -13.81640625 4.5390625 C-18.76791983 6.59212911 -21.66350567 9.23571254 -25.10546875 13.2109375 C-25.95238281 13.86835937 -25.95238281 13.86835937 -26.81640625 14.5390625 C-29.02734375 14.2421875 -29.02734375 14.2421875 -30.81640625 13.5390625 C-29.79571452 8.1404641 -26.84622807 4.1831236 -22.81640625 0.5390625 C-16.27258606 -2.44695254 -6.13509893 -4.93446666 0 0 Z " fill="#2d4a95" transform="translate(66.81640625,23.4609375)"/>
<path d="M0 0 C3.96 0 7.92 0 12 0 C12.061875 0.94875 12.12375 1.8975 12.1875 2.875 C12.89171763 8.07127249 15.52049381 12.45271375 18 17 C16.68 17 15.36 17 14 17 C12.18359375 14.62890625 12.18359375 14.62890625 10.4375 11.5625 C8.1751115 7.15829481 8.1751115 7.15829481 4 5 C3.7525 5.845625 3.505 6.69125 3.25 7.5625 C1.86026373 11.38427474 0.08879162 14.51868063 -2 18 C-3.32 18 -4.64 18 -6 18 C-4.97901752 14.51164321 -3.7782235 11.51505289 -1.875 8.4375 C0.39904344 4.92102265 0.39904344 4.92102265 0 0 Z " fill="#2d4a95" transform="translate(15,33)"/>
</svg>
