<svg xmlns="http://www.w3.org/2000/svg" width="50" height="53" viewBox="0 0 50 53"><path d="M 14 49 L 14 52 L 15 52 L 15 49 Z" fill="black"/><path d="M 16 32 L 15 33 L 15 34 L 16 34 L 17 33 L 17 32 Z" fill="black"/><path d="M 38 28 L 37 29 L 36 29 L 38 29 Z" fill="black"/><path d="M 8 21 L 8 27 L 7 28 L 8 29 L 8 52 L 9 52 L 9 49 L 8 48 L 8 28 L 9 27 L 11 27 L 12 26 L 10 26 L 9 27 L 8 26 Z" fill="black"/><path d="M 41 20 L 40 21 L 38 21 L 38 22 L 39 22 L 40 21 L 42 21 L 43 20 L 44 20 Z" fill="black"/><path d="M 9 18 L 11 18 Z" fill="black"/><path d="M 38 16 L 37 17 L 37 18 L 38 17 Z" fill="black"/><path d="M 21 12 L 20 13 L 19 13 L 18 14 L 17 14 L 17 15 L 14 18 L 14 19 L 13 20 L 13 22 L 14 23 L 14 24 L 15 25 L 15 26 L 16 27 L 16 28 L 22 34 L 22 35 L 23 36 L 22 37 L 21 37 L 21 40 L 23 42 L 23 44 L 24 45 L 24 46 L 26 48 L 29 48 L 30 47 L 32 47 L 32 46 L 33 45 L 33 38 L 34 37 L 35 37 L 35 35 L 33 35 L 32 34 L 32 31 L 33 30 L 33 28 L 34 27 L 34 26 L 35 25 L 35 20 L 33 18 L 33 17 L 29 13 L 28 13 L 27 12 Z" fill="black"/><path d="M 10 9 L 10 10 L 11 10 L 13 12 L 14 12 L 14 11 L 13 11 L 11 9 Z" fill="black"/><path d="M 18 8 L 18 9 L 19 10 L 19 9 Z" fill="black"/><path d="M 29 7 L 28 8 L 28 10 L 28 9 L 29 8 Z" fill="black"/><path d="M 38 6 L 33 11 L 32 11 L 32 12 L 33 11 L 34 11 L 38 7 Z" fill="black"/><path d="M 26 6 L 25 7 L 25 9 L 26 8 Z" fill="black"/></svg>