<?xml version="1.0" encoding="iso-8859-1"?>
<!-- Uploaded to: SVG Repo, www.svgrepo.com, Generator: SVG Repo Mixer Tools -->
<svg fill="#000000" height="800px" width="800px" version="1.1" id="Layer_1" xmlns="http://www.w3.org/2000/svg" xmlns:xlink="http://www.w3.org/1999/xlink" 
	 viewBox="0 0 512.076 512.076" xml:space="preserve">
<g transform="translate(-1 -1)">
	<g>
		<g>
			<path d="M221.268,122.38l29.329,33.528c1.63,1.843,3.968,2.91,6.426,2.91c2.458,0,4.796-1.067,6.426-2.91l28.672-32.777
				l15.078,20.104l39.262-69.751h-23.04c-7.518-16.828-37.086-25.6-66.398-25.6s-58.88,8.772-66.398,25.6h-22.801l39.484,63.104
				L221.268,122.38z M257.023,64.951c28.032,0,46.455,8.602,50.406,14.763l-39.27,44.885l-11.136,12.723l-11.153-12.749v0.008
				l-39.253-44.868C210.568,73.553,228.991,64.951,257.023,64.951z"/>
			<path d="M510.123,292.509l-12.083-20.54l-57.583,37.026l11.366,19.14c5.555,9.387,17.783,12.578,27.23,7.134l23.339-13.483
				c4.966-2.859,8.499-7.484,9.967-13.022C513.826,303.226,513.024,297.449,510.123,292.509z"/>
			<path d="M395.639,97.876c-2.859-4.881-6.502-9.199-10.837-12.843c-5.734-4.821-12.518-8.064-19.695-9.873l-49.451,87.842
				c-1.408,2.517-4.002,4.139-6.878,4.335c-0.179,0.009-0.375,0.017-0.555,0.017c-2.68,0-5.205-1.263-6.827-3.413l-17.562-23.407
				l15.812,222.481c0.171,2.466-0.725,4.89-2.475,6.639l-34.133,34.133c-1.664,1.664-3.849,2.5-6.033,2.5
				c-2.184,0-4.369-0.836-6.033-2.5l-34.133-34.133c-1.749-1.749-2.654-4.173-2.475-6.639l16.026-225.579l-18.5,18.825
				c-1.613,1.647-3.806,2.56-6.084,2.56c-0.307,0-0.614-0.017-0.922-0.051c-2.603-0.282-4.932-1.741-6.315-3.959L148.77,75.203
				c-7.117,1.826-13.841,5.052-19.541,9.83c-4.335,3.644-7.979,7.97-10.837,12.86L23.407,260.538l60.51,32.034l36.574-62.259
				l-0.017,184.508c0,3.311,1.92,6.323,4.924,7.731l58.82,27.452c23.134,10.786,47.957,16.188,72.789,16.188
				c24.832,0,49.655-5.402,72.789-16.188l58.82-27.452c3.004-1.408,4.924-4.42,4.924-7.731l0.017-184.815l38.178,64.299
				l57.643-37.06L395.639,97.876z"/>
			<path d="M3.731,294.234c-2.697,4.634-3.43,10.044-2.048,15.232c1.374,5.188,4.693,9.523,9.335,12.203l24.465,14.123
				c9.498,5.487,21.726,2.253,27.281-7.202l12.501-21.282L14.798,275.29L3.731,294.234z"/>
		</g>
	</g>
</g>
</svg>