<?xml version="1.0" encoding="iso-8859-1"?>
<!-- Uploaded to: SVG Repo, www.svgrepo.com, Generator: SVG Repo Mixer Tools -->
<!DOCTYPE svg PUBLIC "-//W3C//DTD SVG 1.1//EN" "http://www.w3.org/Graphics/SVG/1.1/DTD/svg11.dtd">
<svg fill="#000000" version="1.1" id="Capa_1" xmlns="http://www.w3.org/2000/svg" xmlns:xlink="http://www.w3.org/1999/xlink" 
	 width="800px" height="800px" viewBox="0 0 89.214 89.215"
	 xml:space="preserve">
<g>
	<path d="M81.297,61.708l-13.56-10.729v-1.016v-6.816V23.54v-6.699l-3.746-7.355l3.324-6.32c0.354-0.67,0.33-1.475-0.062-2.121
		C66.861,0.397,66.16,0,65.404,0H7.989C6.798,0,5.832,0.967,5.832,2.16l0.051,80.307h10.369V16.84h-6.102V4.319h51.68l-2.186,4.15
		c-0.328,0.625-0.332,1.369-0.007,1.998l3.296,6.373H20.502v65.625h7.914h6.818h14.527h0.262v1.25c0,2.109,1.205,4.031,3.104,4.951
		c0.762,0.367,1.581,0.549,2.395,0.549c1.217,0,2.424-0.404,3.414-1.188l22.361-17.693c1.318-1.043,2.087-2.633,2.087-4.312
		C83.385,64.34,82.617,62.751,81.297,61.708z M54.624,83.355V71.292H30.456V60.033h24.168V47.971l22.36,17.691L54.624,83.355z"/>
</g>
</svg>