<?xml version="1.0" encoding="UTF-8"?>
<svg version="1.1" xmlns="http://www.w3.org/2000/svg" width="80" height="77">
<path d="M0 0 C1.31384618 0.64385353 2.6232563 1.29681737 3.92871094 1.95751953 C4.62575134 2.30412628 5.32279175 2.65073303 6.04095459 3.00784302 C7.50518297 3.73860239 8.96741847 4.4733672 10.42773438 5.21191406 C12.66442986 6.34101045 14.9091914 7.45270352 17.15527344 8.56298828 C18.58026702 9.27680603 20.00476424 9.99161571 21.42871094 10.70751953 C22.09952698 11.03887909 22.77034302 11.37023865 23.46148682 11.7116394 C26.71983382 13.37388345 28.34126137 14.35759518 30.41308594 17.46533203 C30.66308594 20.02783203 30.66308594 20.02783203 30.41308594 22.46533203 C28.41308594 24.46533203 28.41308594 24.46533203 25.44590759 24.71257019 C24.17429276 24.71114517 22.90267792 24.70972015 21.5925293 24.70825195 C20.89158646 24.7101503 20.19064362 24.71204865 19.46846008 24.71400452 C17.14650363 24.71771589 14.82485844 24.70700409 12.50292969 24.69580078 C10.89392636 24.69460918 9.28492233 24.69415578 7.67591858 24.69441223 C4.30237479 24.6928468 0.92893704 24.68455192 -2.44458008 24.67114258 C-6.77825046 24.65413901 -11.11180436 24.65032858 -15.44550419 24.65108776 C-18.76795065 24.65081643 -22.09037143 24.64534141 -25.41280937 24.63808632 C-27.01127363 24.63489472 -28.60974081 24.6329311 -30.20820808 24.63219261 C-32.4374403 24.630035 -34.66654659 24.62130385 -36.89575195 24.6105957 C-38.1665712 24.60678391 -39.43739044 24.60297211 -40.74671936 24.5990448 C-43.58691406 24.46533203 -43.58691406 24.46533203 -44.58691406 23.46533203 C-44.72806568 20.79474352 -44.62938514 18.14100965 -44.58691406 15.46533203 C-39.12872164 12.56812635 -33.6598769 9.6920038 -28.18310547 6.83007812 C-25.77197794 5.562615 -23.37218576 4.27590911 -20.97363281 2.98486328 C-19.57431667 2.2483811 -18.17459868 1.51266174 -16.77441406 0.77783203 C-16.13632812 0.42720703 -15.49824219 0.07658203 -14.84082031 -0.28466797 C-9.16457908 -3.21940546 -5.75337824 -2.46159377 0 0 Z " fill="#2d4a95" transform="translate(46.5869140625,2.53466796875)"/>
<path d="M0 0 C3.96 0 7.92 0 12 0 C12 9.9 12 19.8 12 30 C8.04 30 4.08 30 0 30 C0 20.1 0 10.2 0 0 Z " fill="#2d4a95" transform="translate(10,30)"/>
<path d="M0 0 C3.63 0 7.26 0 11 0 C11 9.9 11 19.8 11 30 C7.37 30 3.74 30 0 30 C-1.83034055 28.16965945 -1.13042797 25.26788008 -1.1328125 22.8125 C-1.13410156 21.55695312 -1.13539062 20.30140625 -1.13671875 19.0078125 C-1.13462402 18.35071289 -1.1325293 17.69361328 -1.13037109 17.01660156 C-1.12502234 15.00838665 -1.13031691 13.00039541 -1.13671875 10.9921875 C-1.13542969 9.73664062 -1.13414063 8.48109375 -1.1328125 7.1875 C-1.13112061 5.44533203 -1.13112061 5.44533203 -1.12939453 3.66796875 C-1 1 -1 1 0 0 Z " fill="#2d4a95" transform="translate(34,30)"/>
<path d="M0 0 C1.51400391 0.01740234 1.51400391 0.01740234 3.05859375 0.03515625 C4.07050781 0.04417969 5.08242187 0.05320312 6.125 0.0625 C7.29869141 0.07990234 7.29869141 0.07990234 8.49609375 0.09765625 C9.84242055 2.79030986 9.62572011 4.89879874 9.62890625 7.91015625 C9.63019531 9.06773438 9.63148437 10.2253125 9.6328125 11.41796875 C9.62894531 12.63226563 9.62507813 13.8465625 9.62109375 15.09765625 C9.62496094 16.31195313 9.62882812 17.52625 9.6328125 18.77734375 C9.63152344 19.93492188 9.63023438 21.0925 9.62890625 22.28515625 C9.62777832 23.35121094 9.62665039 24.41726562 9.62548828 25.515625 C9.49609375 28.09765625 9.49609375 28.09765625 8.49609375 30.09765625 C6.68367323 30.12452904 4.87114142 30.1439934 3.05859375 30.16015625 C2.04925781 30.17175781 1.03992187 30.18335937 0 30.1953125 C-2.50390625 30.09765625 -2.50390625 30.09765625 -3.50390625 29.09765625 C-3.60384157 27.03710315 -3.63471531 24.97313035 -3.63671875 22.91015625 C-3.63800781 21.65460937 -3.63929687 20.3990625 -3.640625 19.10546875 C-3.63853027 18.44836914 -3.63643555 17.79126953 -3.63427734 17.11425781 C-3.62892859 15.1060429 -3.63422316 13.09805166 -3.640625 11.08984375 C-3.63933594 9.83429687 -3.63804688 8.57875 -3.63671875 7.28515625 C-3.63502686 5.54298828 -3.63502686 5.54298828 -3.63330078 3.765625 C-3.4572102 0.13483659 -3.4572102 0.13483659 0 0 Z " fill="#2d4a95" transform="translate(59.50390625,29.90234375)"/>
<path d="M0 0 C0.69104324 -0.00175232 1.38208649 -0.00350464 2.09407043 -0.00531006 C4.3889107 -0.00972801 6.68367451 -0.0067908 8.97851562 -0.00341797 C10.56652847 -0.00409102 12.15454122 -0.00506106 13.74255371 -0.00631714 C17.07496112 -0.00779403 20.40734178 -0.00563983 23.73974609 -0.00097656 C28.02075073 0.00472073 32.30169268 0.00144168 36.58269501 -0.00454903 C39.86310299 -0.00815487 43.143496 -0.00701595 46.42390442 -0.00442123 C48.00283312 -0.00375203 49.58176317 -0.00458017 51.16069031 -0.00690079 C53.36367415 -0.0094277 55.56655511 -0.00558622 57.76953125 0 C59.65363708 0.00119339 59.65363708 0.00119339 61.57580566 0.00241089 C64.38476562 0.12939453 64.38476562 0.12939453 65.38476562 1.12939453 C65.48267132 2.62677577 65.51451427 4.12882345 65.50976562 5.62939453 C65.51363281 6.85142578 65.51363281 6.85142578 65.51757812 8.09814453 C65.38476562 10.12939453 65.38476562 10.12939453 64.38476562 11.12939453 C62.18151589 11.22899605 59.97503072 11.2573921 57.76953125 11.25878906 C57.07848801 11.26054138 56.38744476 11.2622937 55.67546082 11.26409912 C53.38062055 11.26851707 51.08585674 11.26557986 48.79101562 11.26220703 C47.20300278 11.26288009 45.61499003 11.26385013 44.02697754 11.2651062 C40.69457013 11.2665831 37.36218947 11.26442889 34.02978516 11.25976562 C29.74878052 11.25406834 25.46783857 11.25734739 21.18683624 11.26333809 C17.90642826 11.26694393 14.62603525 11.26580501 11.34562683 11.2632103 C9.76669813 11.26254109 8.18776808 11.26336923 6.60884094 11.26568985 C4.4058571 11.26821676 2.20297614 11.26437528 0 11.25878906 C-1.88410583 11.25759567 -1.88410583 11.25759567 -3.80627441 11.25637817 C-6.61523438 11.12939453 -6.61523438 11.12939453 -7.61523438 10.12939453 C-7.71314007 8.63201329 -7.74498302 7.12996561 -7.74023438 5.62939453 C-7.7428125 4.81470703 -7.74539063 4.00001953 -7.74804688 3.16064453 C-7.45428009 -1.33225927 -3.70857124 0.002349 0 0 Z " fill="#2d4a95" transform="translate(10.615234375,63.87060546875)"/>
</svg>
