
<svg xmlns="http://www.w3.org/2000/svg" xmlns:xlink="http://www.w3.org/1999/xlink" preserveAspectRatio="xMidYMid meet" version="1.0" viewBox="0.0 -0.1 389.8 362.1" zoomAndPan="magnify" style="fill: rgb(45, 74, 149);" original_string_length="1281" width="22.064154382501947px" height="20.499605253560894px"><g id="__id24_s0eu28g0j"><path d="M1.74,311.11c0.09,0.01,0.18,0.02,0.26,0.02c0.89,0,1.69-0.6,1.93-1.48L83.62,12.48c0.15-0.56,0.05-1.15-0.27-1.63 c-0.32-0.48-0.84-0.8-1.41-0.87L2.25,0.02C1.68-0.06,1.11,0.12,0.68,0.5C0.25,0.88,0,1.43,0,2v307.13 C0,310.14,0.74,310.98,1.74,311.11z" style="fill: inherit;"/></g><g id="__id25_s0eu28g0j"><path d="M52.25,317.36c0.36,0.28,0.79,0.41,1.21,0.41c0.55,0,1.1-0.23,1.49-0.67L197.73,156.9c0.37-0.42,0.55-0.97,0.5-1.53 c-0.06-0.56-0.34-1.06-0.79-1.4l-25.46-19.09c-0.44-0.33-1-0.47-1.55-0.37c-0.54,0.1-1.03,0.41-1.33,0.87L51.79,314.68 C51.22,315.55,51.42,316.72,52.25,317.36z" style="fill: inherit;"/></g><g id="__id26_s0eu28g0j"><path d="M364.06,179.88c-0.25-0.52-0.71-0.91-1.27-1.06c-0.56-0.15-1.15-0.06-1.63,0.26L88.89,358.37c-0.86,0.57-1.15,1.7-0.66,2.61 c0.36,0.67,1.05,1.06,1.76,1.06c0.26,0,0.53-0.05,0.78-0.16l297.72-126.17c0.5-0.21,0.9-0.62,1.09-1.13 c0.19-0.51,0.17-1.08-0.07-1.57L364.06,179.88z" style="fill: inherit;"/></g></svg>