
<svg xmlns="http://www.w3.org/2000/svg" xmlns:xlink="http://www.w3.org/1999/xlink" preserveAspectRatio="xMidYMid meet" version="1.0" viewBox="-3.4 -1.5 191.5 191.4" zoomAndPan="magnify" style="fill: rgb(252, 253, 253);" original_string_length="845" width="4.421565302065285px" height="4.397447673144928px"><g id="__id14_s4abrgedcj"><path d="M149.52,19.44a38.16,38.16,0,0,0-11.83,1.85,38.5,38.5,0,0,0-61.64-10L11.27,76.05a38.48,38.48,0,0,0,54.42,54.41L111,85.11v64.41a38.48,38.48,0,1,0,77,0V57.92A38.52,38.52,0,0,0,149.52,19.44ZM81.7,16.93A30.48,30.48,0,0,1,124.81,60L94.17,90.67,51.07,47.56ZM60,124.81A30.48,30.48,0,0,1,16.93,81.7L45.41,53.22l43.1,43.1Zm111,46.26a30.48,30.48,0,0,1-52-21.55V109.24h61v40.28A30.27,30.27,0,0,1,171.07,171.07ZM180,101.24H119V77.11l11.42-11.42a38.22,38.22,0,0,0,11.27-27.21,39,39,0,0,0-1.22-9.68,30.17,30.17,0,0,1,9-1.36A30.51,30.51,0,0,1,180,57.92Z" style="fill: inherit;"/></g></svg>